<svg{% if include.class %} class="{{ include.class }}"{% endif %}{% if include.width %} width="{{ include.width }}"{% endif %}{% if include.height %} height="{{ include.height }}"{% endif %} viewBox="0 0 782 782" version="1.1" xmlns="http://www.w3.org/2000/svg" xmlns:xlink="http://www.w3.org/1999/xlink"><g fill="#FFF" fill-rule="evenodd"><path d="M595 93c51.846.165 93.835 42.154 94 94v408c-.165 51.846-42.154 93.835-94 94H187c-51.846-.165-93.835-42.154-94-94V187c.165-51.846 42.154-93.835 94-94h408zm0-8H187c-56.1 0-102 45.9-102 102v408c0 56.1 45.9 102 102 102h408c56.1 0 102-45.9 102-102V187c0-56.1-45.9-102-102-102z" fill-rule="nonzero"/><path d="M745.968 324.532c36.544 36.777 36.544 96.159 0 132.936l-288.5 288.5c-36.777 36.544-96.159 36.544-132.936 0l-288.5-288.5c-36.544-36.777-36.544-96.159 0-132.936l288.5-288.5c36.777-36.544 96.159-36.544 132.936 0l288.5 288.5zm5.656-5.657l-288.5-288.5c-39.668-39.668-104.58-39.668-144.249 0l-288.5 288.5c-39.668 39.669-39.668 104.581 0 144.25l288.5 288.5c39.669 39.668 104.581 39.668 144.25 0l288.5-288.5c39.668-39.669 39.668-104.581 0-144.25z" fill-rule="nonzero"/><path d="M744.384 465.432c19.688 47.963-3.036 102.824-50.873 122.817L316.568 744.384c-47.963 19.688-102.824-3.036-122.817-50.873L37.616 316.568c-19.688-47.963 3.036-102.824 50.873-122.817L465.432 37.616c47.963-19.688 102.824 3.036 122.817 50.873l156.135 376.943zm7.39-3.062L595.64 85.427c-21.469-51.83-81.44-76.67-133.27-55.202L85.427 186.36c-51.83 21.469-76.67 81.44-55.202 133.27L186.36 696.573c21.469 51.83 81.44 76.67 133.27 55.202L696.573 595.64c51.83-21.469 76.67-81.44 55.202-133.27z" fill-rule="nonzero"/><path d="M693.511 193.751c47.837 19.993 70.561 74.854 50.873 122.817L588.249 693.511c-19.993 47.837-74.854 70.561-122.817 50.873L88.489 588.249c-47.837-19.993-70.561-74.854-50.873-122.817L193.751 88.489c19.993-47.837 74.854-70.561 122.817-50.873l376.943 156.135zm3.062-7.39L319.63 30.224C267.8 8.757 207.829 33.598 186.36 85.427L30.225 462.37C8.757 514.2 33.598 574.171 85.427 595.64L462.37 751.775c51.83 21.468 111.801-3.373 133.27-55.202L751.775 319.63c21.468-51.83-3.373-111.801-55.202-133.27z" fill-rule="nonzero"/><path d="M484.75 532h-34.18V403.875H331.43V532h-34.18V250.164h34.18v122.07h119.14v-122.07h34.18z"/></g></svg>
