<svg{% if include.class %} class="{{ include.class }}"{% endif %}{% if include.width %} width="{{ include.width }}"{% endif %}{% if include.height %} height="{{ include.height }}"{% endif %} viewBox="0 0 782 782" version="1.1" xmlns="http://www.w3.org/2000/svg" xmlns:xlink="http://www.w3.org/1999/xlink">
    <title>nest</title>
    <defs></defs>
    <g id="nest" stroke="none" stroke-width="1" fill="none" fill-rule="evenodd">
        <g transform="translate(-42.000000, -42.000000)" fill="currentColor">
            <path d="M637,135 C688.846401,135.16468 730.83532,177.153599 731,229 L731,637 C730.83532,688.846401 688.846401,730.83532 637,731 L229,731 C177.153599,730.83532 135.16468,688.846401 135,637 L135,229 C135.16468,177.153599 177.153599,135.16468 229,135 L637,135 L637,135 Z M637,127 L229,127 C172.9,127 127,172.9 127,229 L127,637 C127,693.1 172.9,739 229,739 L637,739 C693.1,739 739,693.1 739,637 L739,229 C739,172.9 693.1,127 637,127 Z" id="Shape" fill-rule="nonzero"></path>
            <path d="M637,135 C688.846401,135.16468 730.83532,177.153599 731,229 L731,637 C730.83532,688.846401 688.846401,730.83532 637,731 L229,731 C177.153599,730.83532 135.16468,688.846401 135,637 L135,229 C135.16468,177.153599 177.153599,135.16468 229,135 L637,135 L637,135 Z M637,127 L229,127 C172.9,127 127,172.9 127,229 L127,637 C127,693.1 172.9,739 229,739 L637,739 C693.1,739 739,693.1 739,637 L739,229 C739,172.9 693.1,127 637,127 Z" id="Shape" fill-rule="nonzero" transform="translate(433.000000, 433.000000) rotate(45.000000) translate(-433.000000, -433.000000) "></path>
            <path d="M637,135 C688.846401,135.16468 730.83532,177.153599 731,229 L731,637 C730.83532,688.846401 688.846401,730.83532 637,731 L229,731 C177.153599,730.83532 135.16468,688.846401 135,637 L135,229 C135.16468,177.153599 177.153599,135.16468 229,135 L637,135 L637,135 Z M637,127 L229,127 C172.9,127 127,172.9 127,229 L127,637 C127,693.1 172.9,739 229,739 L637,739 C693.1,739 739,693.1 739,637 L739,229 C739,172.9 693.1,127 637,127 Z" id="Shape" fill-rule="nonzero" transform="translate(433.000000, 433.000000) rotate(67.500000) translate(-433.000000, -433.000000) "></path>
            <path d="M637,135 C688.846401,135.16468 730.83532,177.153599 731,229 L731,637 C730.83532,688.846401 688.846401,730.83532 637,731 L229,731 C177.153599,730.83532 135.16468,688.846401 135,637 L135,229 C135.16468,177.153599 177.153599,135.16468 229,135 L637,135 L637,135 Z M637,127 L229,127 C172.9,127 127,172.9 127,229 L127,637 C127,693.1 172.9,739 229,739 L637,739 C693.1,739 739,693.1 739,637 L739,229 C739,172.9 693.1,127 637,127 Z" id="Shape" fill-rule="nonzero" transform="translate(433.000000, 433.000000) rotate(22.500000) translate(-433.000000, -433.000000) "></path>
            <polygon id="N" points="355.703125 578 355.703125 359.445312 358.828125 359.445312 511.757812 578 545.9375 578 545.9375 296.164062 511.171875 296.164062 511.171875 515.5 508.046875 515.5 355.117188 296.164062 320.9375 296.164062 320.9375 578"></polygon>
        </g>
    </g>
</svg>
